<svg width="32" height="32" viewBox="0 0 32 32" fill="none" xmlns="http://www.w3.org/2000/svg">
<g id="twitter">
<path id="Vector" d="M31.1911 3.04785L31.69 3.01477C31.6767 2.8142 31.5446 2.6411 31.3547 2.57535C31.1647 2.50961 30.9538 2.56401 30.8194 2.71345L31.1911 3.04785ZM29.5176 9.489C29.5176 9.21286 29.2937 8.989 29.0176 8.989C28.7415 8.989 28.5176 9.21286 28.5176 9.489H29.5176ZM16.0001 11.4288V11.9288H16.5001V11.4288H16.0001ZM2.93547 3.04785L3.40373 2.87253C3.33396 2.68619 3.16035 2.55896 2.96165 2.54854C2.76296 2.53812 2.57699 2.6465 2.48812 2.82452L2.93547 3.04785ZM11.4286 22.8574L11.7825 23.2107C11.9048 23.0881 11.9551 22.911 11.9152 22.7424C11.8754 22.5739 11.7512 22.4379 11.587 22.3831L11.4286 22.8574ZM0.761963 26.9934V26.4934C0.541695 26.4934 0.347374 26.6376 0.283469 26.8484C0.219563 27.0592 0.30113 27.2869 0.484316 27.4093L0.761963 26.9934ZM27.3547 5.16678L26.9839 5.50212L27.164 5.70136L27.4296 5.66114L27.3547 5.16678ZM30.6922 3.08093C30.8064 4.80367 30.7077 5.92595 30.3936 6.8115C30.0831 7.6866 29.5444 8.38113 28.6717 9.21745L29.3635 9.93948C30.2868 9.05474 30.9508 8.23184 31.336 7.14583C31.7176 6.07027 31.8076 4.78777 31.69 3.01477L30.6922 3.08093ZM29.5176 11.075V9.57846H28.5176V11.075H29.5176ZM29.5176 9.57846V9.489H28.5176V9.57846H29.5176ZM15.5001 9.90499V11.4288H16.5001V9.90499H15.5001ZM22.5864 2.54785C18.6343 2.54785 15.5001 5.99884 15.5001 9.90499H16.5001C16.5001 6.49882 19.2375 3.54785 22.5864 3.54785V2.54785ZM28.5176 11.075C28.5176 20.8025 20.3591 29.2145 10.6667 29.2145V30.2145C20.9309 30.2145 29.5176 21.3351 29.5176 11.075H28.5176ZM2.46722 3.22318C3.60573 6.26388 7.91195 11.9288 16.0001 11.9288V10.9288C8.43889 10.9288 4.43873 5.63681 3.40373 2.87253L2.46722 3.22318ZM2.48812 2.82452C0.267512 7.27261 -0.0910979 11.5634 1.42278 15.1862C2.93666 18.8091 6.28223 21.6664 11.2703 23.3316L11.587 22.3831C6.79423 20.7831 3.71971 18.0893 2.34546 14.8006C0.971201 11.5119 1.25641 7.53058 3.38283 3.27118L2.48812 2.82452ZM11.0748 22.5041C9.697 23.884 5.81676 26.4934 0.761963 26.4934V27.4934C6.14002 27.4934 10.2623 24.7332 11.7825 23.2107L11.0748 22.5041ZM27.7256 4.83143C26.4582 3.42971 24.6248 2.54785 22.5864 2.54785V3.54785C24.3302 3.54785 25.8978 4.30101 26.9839 5.50212L27.7256 4.83143ZM27.4296 5.66114C28.9452 5.4316 30.4386 4.63191 31.5628 3.38225L30.8194 2.71345C29.844 3.79771 28.5577 4.47889 27.2799 4.67241L27.4296 5.66114ZM0.484316 27.4093C3.85283 29.6584 7.09254 30.2145 10.6667 30.2145V29.2145C7.21655 29.2145 4.19162 28.6822 1.03961 26.5776L0.484316 27.4093Z" fill="#F2F2F2"/>
</g>
</svg>
